<svg xmlns="http://www.w3.org/2000/svg" width="72" height="59" viewBox="0 0 72 59">
  <g id="Group_37697" data-name="Group 37697" transform="translate(-268 -708)">
    <g id="Path_27675" data-name="Path 27675" transform="translate(268 708)" fill="#fff">
      <path d="M 64 58.5 L 8 58.5 C 3.864490032196045 58.5 0.5 55.1355094909668 0.5 51 L 0.5 8 C 0.5 3.864490032196045 3.864490032196045 0.5 8 0.5 L 64 0.5 C 68.13551330566406 0.5 71.5 3.864490032196045 71.5 8 L 71.5 51 C 71.5 55.1355094909668 68.13551330566406 58.5 64 58.5 Z" stroke="none"/>
      <path d="M 8 1 C 4.140190124511719 1 1 4.140190124511719 1 8 L 1 51 C 1 54.85980987548828 4.140190124511719 58 8 58 L 64 58 C 67.85980987548828 58 71 54.85980987548828 71 51 L 71 8 C 71 4.140190124511719 67.85980987548828 1 64 1 L 8 1 M 8 0 L 64 0 C 68.41828155517578 0 72 3.581718444824219 72 8 L 72 51 C 72 55.41828155517578 68.41828155517578 59 64 59 L 8 59 C 3.581718444824219 59 0 55.41828155517578 0 51 L 0 8 C 0 3.581718444824219 3.581718444824219 0 8 0 Z" stroke="none" fill="#ddd"/>
    </g>
    <g id="_2993701_apple_brand_brands_ios_logo_icon" data-name="2993701_apple_brand_brands_ios_logo_icon" transform="translate(291 725)">
      <path id="Path_27680" data-name="Path 27680" d="M19.2,12.987a5.907,5.907,0,0,1,3.267-5.281A6.73,6.73,0,0,0,18.127,6a6.586,6.586,0,0,0-2.519.558,6,6,0,0,1-2.319.517,6,6,0,0,1-2.319-.517A6.586,6.586,0,0,0,8.451,6C7.79,6,2,6.211,2,13.525c0,5.981,4.082,11.824,6.451,11.824a7.133,7.133,0,0,0,3.021-.638,4.41,4.41,0,0,1,1.817-.436,4.4,4.4,0,0,1,1.817.436,7.141,7.141,0,0,0,3.021.638c1.66,0,4.023-2.871,5.372-6.645A5.8,5.8,0,0,1,19.2,12.987Z" transform="translate(0 0.45)" fill="#393939"/>
      <path id="XMLID_1339_" d="M12,6.45A6.518,6.518,0,0,0,17.377,0,6.518,6.518,0,0,0,12,6.45Z" transform="translate(0.75)" fill="#393939"/>
      <path id="Path_27681" data-name="Path 27681" d="M8.451,6.269a6.586,6.586,0,0,1,2.519.558,6,6,0,0,0,2.319.517,6,6,0,0,0,2.319-.517,6.586,6.586,0,0,1,2.519-.558,6.82,6.82,0,0,1,4.149,1.551c.065-.036.125-.08.192-.114A6.73,6.73,0,0,0,18.127,6a6.586,6.586,0,0,0-2.519.558,6,6,0,0,1-2.319.517,6,6,0,0,1-2.319-.517A6.586,6.586,0,0,0,8.451,6C7.79,6,2,6.211,2,13.525c0,.049.006.1.006.148C2.073,6.484,7.794,6.269,8.451,6.269Z" transform="translate(0 0.45)" fill="#393939" opacity="0.1"/>
      <path id="Path_27682" data-name="Path 27682" d="M18.127,24.564a7.141,7.141,0,0,1-3.021-.638,4.4,4.4,0,0,0-1.817-.436,4.41,4.41,0,0,0-1.817.436,7.133,7.133,0,0,1-3.021.638c-2.35,0-6.378-5.747-6.445-11.676,0,.042-.006.078-.006.121C2,18.99,6.082,24.833,8.451,24.833a7.133,7.133,0,0,0,3.021-.638,4.41,4.41,0,0,1,1.817-.436,4.4,4.4,0,0,1,1.817.436,7.141,7.141,0,0,0,3.021.638c1.66,0,4.023-2.871,5.372-6.645-.031-.008-.059-.023-.09-.032C22.041,21.811,19.751,24.564,18.127,24.564Z" transform="translate(0 0.966)" fill="#393939" opacity="0.2"/>
      <path id="Path_27683" data-name="Path 27683" d="M17.352.456a6.363,6.363,0,0,1-5.347,5.7c0,.093,0,.178,0,.272A6.533,6.533,0,0,0,17.374.261C17.365.311,17.368.4,17.352.456Z" transform="translate(0.75 0.02)" fill="#393939" opacity="0.2"/>
      <path id="Path_27684" data-name="Path 27684" d="M12.005,6.164c.012-.07.028-.265.043-.383q.017-.222.048-.437C12.49,2.651,14.573.863,17.374.28c0-.093,0-.186,0-.28A6.523,6.523,0,0,0,12.005,6.164Z" transform="translate(0.75 0)" fill="#393939" opacity="0.1"/>
      <path id="Path_27685" data-name="Path 27685" d="M19.2,13.437a5.907,5.907,0,0,1,3.267-5.281A6.73,6.73,0,0,0,18.127,6.45a6.586,6.586,0,0,0-2.519.558,6,6,0,0,1-2.319.517,6,6,0,0,1-2.319-.517A6.586,6.586,0,0,0,8.451,6.45C7.79,6.45,2,6.661,2,13.975,2,19.956,6.082,25.8,8.451,25.8a7.133,7.133,0,0,0,3.021-.638,4.41,4.41,0,0,1,1.817-.436,4.4,4.4,0,0,1,1.817.436,7.141,7.141,0,0,0,3.021.638c1.66,0,4.023-2.871,5.372-6.645A5.8,5.8,0,0,1,19.2,13.437ZM18.127,0a6.518,6.518,0,0,0-5.375,6.45A6.518,6.518,0,0,0,18.127,0Z" transform="translate(0 0)" fill="#393939"/>
    </g>
  </g>
</svg>
