<svg xmlns="http://www.w3.org/2000/svg" width="72" height="59" viewBox="0 0 72 59">
  <g id="Group_37696" data-name="Group 37696" transform="translate(-73 -708)">
    <g id="Path_27675" data-name="Path 27675" transform="translate(73 708)" fill="#fff">
      <path d="M 64 58.5 L 8 58.5 C 3.864490032196045 58.5 0.5 55.1355094909668 0.5 51 L 0.5 8 C 0.5 3.864490032196045 3.864490032196045 0.5 8 0.5 L 64 0.5 C 68.13551330566406 0.5 71.5 3.864490032196045 71.5 8 L 71.5 51 C 71.5 55.1355094909668 68.13551330566406 58.5 64 58.5 Z" stroke="none"/>
      <path d="M 8 1 C 4.140190124511719 1 1 4.140190124511719 1 8 L 1 51 C 1 54.85980987548828 4.140190124511719 58 8 58 L 64 58 C 67.85980987548828 58 71 54.85980987548828 71 51 L 71 8 C 71 4.140190124511719 67.85980987548828 1 64 1 L 8 1 M 8 0 L 64 0 C 68.41828155517578 0 72 3.581718444824219 72 8 L 72 51 C 72 55.41828155517578 68.41828155517578 59 64 59 L 8 59 C 3.581718444824219 59 0 55.41828155517578 0 51 L 0 8 C 0 3.581718444824219 3.581718444824219 0 8 0 Z" stroke="none" fill="#ddd"/>
    </g>
    <g id="_7123025_logo_google_g_icon" data-name="7123025_logo_google_g_icon" transform="translate(66.975 695.902)">
      <path id="Path_27676" data-name="Path 27676" d="M87.6,69.267a15.227,15.227,0,0,0-.212-2.467H75.9v4.695h6.578a5.534,5.534,0,0,1-2.44,3.687l3.925,3.05A11.972,11.972,0,0,0,87.6,69.267Z" transform="translate(-33.707 -27.702)" fill="#4280ef"/>
      <path id="Path_27677" data-name="Path 27677" d="M45.775,93.714a11.647,11.647,0,0,0,8.063-2.944l-3.925-3.024A7.385,7.385,0,0,1,38.932,83.9L34.9,87A12.162,12.162,0,0,0,45.775,93.714Z" transform="translate(-3.582 -40.267)" fill="#34a353"/>
      <path id="Path_27678" data-name="Path 27678" d="M35.35,62.2a7.4,7.4,0,0,1,0-4.668L31.318,54.4a12.19,12.19,0,0,0,0,10.928Z" transform="translate(0 -18.591)" fill="#f6b704"/>
      <path id="Path_27679" data-name="Path 27679" d="M45.775,33.926a6.642,6.642,0,0,1,4.668,1.83l3.475-3.5A11.716,11.716,0,0,0,45.775,29.1,12.162,12.162,0,0,0,34.9,35.809l4.032,3.13A7.283,7.283,0,0,1,45.775,33.926Z" transform="translate(-3.582 0)" fill="#e54335"/>
    </g>
  </g>
</svg>
